<svg width="72" height="72" viewBox="0 0 72 72" fill="none" xmlns="http://www.w3.org/2000/svg">
<path d="M50.6842 34.5994C50.133 31.5619 47.478 29.2613 44.283 29.2613C41.088 29.2613 38.4667 31.59 37.893 34.6106" fill="#20A6FF"/>
<path d="M44.2886 28.2938C42.3817 28.2938 40.8292 26.7413 40.8292 24.8344C40.8292 22.9275 42.3817 21.375 44.2886 21.375C46.1955 21.375 47.748 22.9275 47.748 24.8344C47.748 26.7413 46.1955 28.2938 44.2886 28.2938Z" fill="#141925"/>
<path d="M44.2886 28.2938C42.3817 28.2938 40.8292 26.7413 40.8292 24.8344C40.8292 22.9275 42.3817 21.375 44.2886 21.375C46.1955 21.375 47.748 22.9275 47.748 24.8344C47.748 26.7413 46.1955 28.2938 44.2886 28.2938Z" fill="#20A6FF"/>
<path d="M33.0049 33.0975H23.5942C22.7786 33.0975 22.1205 32.4338 22.1205 31.6238V26.4431C22.1205 25.6275 22.7842 24.9694 23.5942 24.9694H33.0049C33.8205 24.9694 34.4786 25.6331 34.4786 26.4431V31.6238C34.4786 32.4394 33.8149 33.0975 33.0049 33.0975ZM23.5942 25.5094C23.0767 25.5094 22.6605 25.9313 22.6605 26.4431V31.6238C22.6605 32.1413 23.0824 32.5575 23.5942 32.5575H33.0049C33.5224 32.5575 33.9386 32.1356 33.9386 31.6238V26.4431C33.9386 25.9256 33.5167 25.5094 33.0049 25.5094H23.5942Z" fill="#141925"/>
<path d="M29.4217 34.8919H27.1774C27.0311 34.8919 26.9074 34.7738 26.9074 34.6219V32.8331C26.9074 32.6869 27.0255 32.5631 27.1774 32.5631H29.4217C29.568 32.5631 29.6917 32.6813 29.6917 32.8331V34.6219C29.6917 34.7681 29.5736 34.8919 29.4217 34.8919ZM27.4474 34.3519H29.1517V33.0975H27.4474V34.3519Z" fill="#141925"/>
<path d="M35.5699 42.1256V41.085L36.8805 40.725H37.5217V46.6538L36.273 46.6819V42.1256H35.5699Z" fill="#141925"/>
<path d="M51.2355 51.345H21.8392C21.1249 51.345 20.5455 50.7656 20.5455 50.0513V37.1194C20.5455 36.9731 20.6636 36.8494 20.8155 36.8494H52.2592C52.4055 36.8494 52.5292 36.9675 52.5292 37.1194V50.0513C52.5292 50.7656 51.9499 51.345 51.2355 51.345ZM21.0855 37.3894V50.0513C21.0855 50.4675 21.423 50.805 21.8392 50.805H51.2355C51.6517 50.805 51.9892 50.4675 51.9892 50.0513V37.3894H21.0855Z" fill="#141925"/>
<path d="M19.9211 37.3781C19.4542 37.3781 19.0774 37.0013 19.0774 36.5344V35.19C19.0774 34.7231 19.4542 34.3463 19.9211 34.3463H53.1592C53.6261 34.3463 54.003 34.7231 54.003 35.19V36.5344C54.003 37.0013 53.6261 37.3781 53.1592 37.3781H19.9211ZM19.9211 34.8919C19.7524 34.8919 19.6174 35.0269 19.6174 35.1956V36.54C19.6174 36.7088 19.7524 36.8438 19.9211 36.8438H53.1592C53.328 36.8438 53.463 36.7088 53.463 36.54V35.1956C53.463 35.0269 53.328 34.8919 53.1592 34.8919H19.9211Z" fill="#141925"/>
<path d="M21.5805 43.7063C19.6174 43.1719 18.5205 44.5894 18.2842 45.1744C17.2999 46.8788 18.9817 50.6475 21.6424 49.59C24.2974 48.5269 24.2974 44.4656 21.5805 43.7063Z" fill="#9A57FD"/>
</svg>
