<svg width="64" height="64" viewBox="0 0 64 64" fill="none" xmlns="http://www.w3.org/2000/svg">
<path d="M44.2692 50.313H18.6893C17.4893 50.313 16.5093 49.338 16.5093 48.133V13.558C16.5093 12.358 17.4843 11.378 18.6893 11.378H37.8893C37.9493 11.378 38.0093 11.403 38.0543 11.443L46.3743 19.298C46.4243 19.343 46.4493 19.408 46.4493 19.473V46.093C46.4493 46.228 46.3442 46.333 46.2092 46.333C46.0742 46.333 45.9692 46.228 45.9692 46.093V19.578L37.7943 11.858H18.6893C17.7543 11.858 16.9893 12.618 16.9893 13.558V48.138C16.9893 49.073 17.7493 49.838 18.6893 49.838H44.2692C44.7442 49.838 45.1843 49.648 45.5093 49.298C45.5993 49.203 45.7542 49.198 45.8492 49.288C45.9442 49.378 45.9493 49.528 45.8593 49.628C45.4443 50.073 44.8792 50.318 44.2692 50.318V50.313Z" fill="#131926"/>
<path d="M46.2042 19.713H39.8243C38.6243 19.713 37.6442 18.738 37.6442 17.533V11.618C37.6442 11.523 37.6992 11.438 37.7892 11.398C37.8792 11.358 37.9793 11.378 38.0493 11.443L46.3693 19.298C46.4393 19.363 46.4643 19.468 46.4293 19.563C46.3943 19.658 46.3042 19.713 46.2042 19.713ZM38.1243 12.173V17.533C38.1243 18.468 38.8843 19.233 39.8243 19.233H45.5992L38.1243 12.178V12.173Z" fill="#131926"/>
<path d="M40.9293 24.468H22.7292C22.5992 24.468 22.4893 24.363 22.4893 24.228C22.4893 24.093 22.5942 23.988 22.7292 23.988H40.9293C41.0593 23.988 41.1693 24.093 41.1693 24.228C41.1693 24.363 41.0643 24.468 40.9293 24.468Z" fill="#131926"/>
<path d="M40.9293 31.778H22.7292C22.5992 31.778 22.4893 31.673 22.4893 31.538C22.4893 31.403 22.5942 31.298 22.7292 31.298H40.9293C41.0593 31.298 41.1693 31.403 41.1693 31.538C41.1693 31.673 41.0643 31.778 40.9293 31.778Z" fill="#131926"/>
<path d="M31.5693 39.088H22.7343C22.6043 39.088 22.4943 38.983 22.4943 38.848C22.4943 38.713 22.5993 38.608 22.7343 38.608H31.5693C31.6993 38.608 31.8093 38.713 31.8093 38.848C31.8093 38.983 31.7043 39.088 31.5693 39.088Z" fill="#131926"/>
<path fill-rule="evenodd" clip-rule="evenodd" d="M50.3992 50.333L45.2643 45.148C44.9993 45.518 44.7043 45.868 44.3743 46.198C44.0443 46.523 43.6893 46.818 43.3193 47.078L48.4542 52.263C48.9242 52.738 49.6892 52.743 50.1642 52.273L50.3942 52.048C50.8692 51.578 50.8742 50.813 50.4042 50.338L50.3992 50.333Z" fill="#20A6FF"/>
<path fill-rule="evenodd" clip-rule="evenodd" d="M45.8492 40.563C45.8492 40.563 45.8492 40.523 45.8492 40.503C45.8492 40.278 45.8393 40.053 45.8193 39.828C45.8193 39.828 45.8193 39.823 45.8193 39.818C45.7993 39.603 45.7692 39.393 45.7292 39.183C45.7192 39.128 45.7043 39.073 45.6943 39.013C45.6643 38.858 45.6242 38.703 45.5842 38.548C45.5642 38.473 45.5392 38.403 45.5192 38.328C45.4792 38.193 45.4343 38.063 45.3843 37.928C45.3543 37.848 45.3192 37.763 45.2842 37.683C45.2342 37.563 45.1793 37.443 45.1243 37.328C45.0843 37.243 45.0393 37.158 44.9943 37.073C44.9343 36.963 44.8743 36.858 44.8093 36.753C44.7543 36.663 44.7042 36.578 44.6442 36.493C44.5792 36.393 44.5043 36.298 44.4343 36.203C44.3693 36.118 44.3092 36.028 44.2393 35.943C44.1642 35.848 44.0793 35.763 43.9943 35.673C43.9243 35.598 43.8592 35.518 43.7892 35.448C43.6192 35.273 43.4393 35.113 43.2543 34.958C43.2393 34.943 43.2242 34.933 43.2092 34.923C43.0442 34.788 42.8742 34.663 42.7042 34.548C42.6492 34.513 42.5942 34.478 42.5392 34.443C42.4042 34.358 42.2643 34.273 42.1243 34.198C42.0493 34.158 41.9692 34.123 41.8942 34.083C41.7692 34.023 41.6492 33.963 41.5242 33.908C41.4342 33.868 41.3393 33.833 41.2493 33.798C41.1343 33.753 41.0192 33.713 40.9042 33.678C40.8042 33.643 40.6992 33.618 40.5942 33.588C40.4842 33.558 40.3792 33.533 40.2692 33.508C40.1592 33.483 40.0493 33.463 39.9393 33.443C39.8343 33.423 39.7293 33.408 39.6243 33.398C39.5093 33.383 39.3942 33.373 39.2742 33.363C39.1142 33.353 38.9542 33.338 38.7992 33.338C38.7592 33.338 38.7193 33.338 38.6793 33.338C38.4993 33.338 38.3242 33.348 38.1442 33.363C38.1092 33.363 38.0742 33.363 38.0392 33.368C37.8492 33.388 37.6542 33.413 37.4642 33.448C37.4242 33.453 37.3842 33.463 37.3442 33.468C37.1542 33.503 36.9692 33.553 36.7792 33.603C36.7442 33.613 36.7042 33.623 36.6692 33.633C36.4792 33.688 36.2942 33.753 36.1042 33.828C36.0742 33.838 36.0443 33.853 36.0143 33.863C35.8243 33.943 35.6343 34.028 35.4493 34.123C35.4293 34.133 35.4093 34.143 35.3893 34.153C35.1943 34.253 35.0043 34.363 34.8243 34.483C34.8143 34.488 34.8092 34.493 34.7992 34.498C34.4092 34.753 34.0343 35.053 33.6893 35.398C33.0093 36.073 32.4942 36.848 32.1442 37.678C31.4092 39.413 31.3842 41.383 32.0842 43.133C32.4292 43.993 32.9493 44.803 33.6393 45.503C33.7093 45.578 33.7892 45.638 33.8643 45.708C33.9543 45.793 34.0443 45.878 34.1343 45.953C34.2193 46.023 34.3092 46.088 34.3942 46.153C34.4892 46.223 34.5793 46.298 34.6793 46.363C34.7643 46.423 34.8543 46.478 34.9443 46.533C35.0493 46.598 35.1493 46.663 35.2593 46.718C35.3443 46.768 35.4342 46.808 35.5192 46.853C35.6342 46.908 35.7493 46.963 35.8643 47.013C35.9492 47.048 36.0293 47.083 36.1143 47.118C36.2442 47.168 36.3693 47.213 36.4993 47.253C36.5743 47.278 36.6492 47.303 36.7292 47.328C36.8792 47.373 37.0293 47.408 37.1793 47.438C37.2393 47.453 37.2992 47.468 37.3592 47.478C37.5592 47.518 37.7642 47.548 37.9692 47.568C37.9792 47.568 37.9893 47.568 37.9993 47.568C38.2243 47.588 38.4442 47.603 38.6692 47.603C38.6942 47.603 38.7243 47.603 38.7493 47.603C38.9393 47.603 39.1293 47.593 39.3143 47.578C39.3793 47.573 39.4493 47.563 39.5143 47.553C39.6593 47.538 39.8092 47.518 39.9542 47.493C40.0392 47.478 40.1193 47.463 40.1993 47.443C40.3293 47.418 40.4542 47.388 40.5792 47.353C40.6692 47.328 40.7592 47.303 40.8492 47.273C40.9642 47.238 41.0743 47.198 41.1893 47.158C41.2843 47.123 41.3842 47.088 41.4792 47.043C41.5792 46.998 41.6792 46.953 41.7792 46.908C41.8792 46.858 41.9842 46.813 42.0842 46.758C42.1692 46.713 42.2542 46.658 42.3392 46.613C42.4492 46.548 42.5592 46.488 42.6642 46.418C43.0442 46.168 43.4043 45.878 43.7393 45.548C44.0742 45.218 44.3643 44.858 44.6193 44.483C44.6893 44.378 44.7543 44.268 44.8193 44.158C44.8693 44.073 44.9242 43.993 44.9692 43.908C45.0242 43.808 45.0743 43.708 45.1193 43.608C45.1693 43.508 45.2143 43.408 45.2593 43.308C45.2993 43.213 45.3393 43.118 45.3743 43.023C45.4193 42.908 45.4593 42.798 45.4943 42.683C45.5243 42.593 45.5493 42.503 45.5743 42.413C45.6093 42.283 45.6392 42.158 45.6692 42.028C45.6892 41.948 45.7042 41.868 45.7192 41.788C45.7492 41.638 45.7692 41.493 45.7842 41.343C45.7942 41.278 45.8043 41.213 45.8093 41.153C45.8293 40.958 45.8392 40.763 45.8392 40.568L45.8492 40.563ZM42.0093 43.803C40.1693 45.623 37.1993 45.613 35.3793 43.773C33.5593 41.933 33.5692 38.963 35.4092 37.143C37.2492 35.323 40.2192 35.333 42.0392 37.173C43.8592 39.013 43.8493 41.983 42.0093 43.803Z" fill="#20A6FF"/>
<path d="M17.4292 42.498C15.6842 42.023 14.7092 43.283 14.4992 43.803C13.6242 45.318 15.1192 48.668 17.4842 47.728C19.8442 46.783 19.8442 43.173 17.4292 42.498Z" fill="#924FF5"/>
</svg>
