<svg width="92" height="92" viewBox="0 0 92 92" fill="none" xmlns="http://www.w3.org/2000/svg">
<path d="M22.8075 75.0198C22.714 75.0198 22.6206 74.9839 22.5559 74.912C22.4265 74.7755 22.4337 74.5526 22.5703 74.4233L38.2965 59.8326C38.4259 59.7104 38.6343 59.7104 38.7637 59.8326L47.4606 67.8036L66.8884 50.3811C67.025 50.2589 67.2406 50.2661 67.37 50.4026L71.2728 54.5283L75.3265 37.7311L58.6084 41.9429L62.1662 45.9536C62.2956 46.0973 62.2812 46.3129 62.1375 46.4351L47.9278 59.3583C47.7984 59.4733 47.5972 59.4804 47.4678 59.3583L37.2831 50.3883L17.0862 68.242C16.9425 68.3714 16.7268 68.357 16.5975 68.2133C16.4681 68.0695 16.4825 67.8539 16.6262 67.7245L37.0603 49.6551C37.1897 49.5401 37.3837 49.5401 37.5203 49.6551L47.6978 58.6251L61.4259 46.1404L57.7172 41.9645C57.6381 41.8783 57.6093 41.7489 57.6453 41.6339C57.6812 41.5189 57.7747 41.4326 57.8897 41.4039L75.7075 36.9117C75.8225 36.8829 75.9518 36.9117 76.0309 36.9979C76.1172 37.0842 76.1531 37.2064 76.1244 37.3214L71.7831 55.2973C71.7543 55.4195 71.6609 55.5201 71.5387 55.5489C71.4165 55.5776 71.2872 55.5489 71.2009 55.4555L67.0968 51.1142L47.6834 68.5223C47.5468 68.6373 47.3528 68.6373 47.2234 68.5223L38.5337 60.5586L23.0447 74.9336C22.98 74.9983 22.8937 75.027 22.8075 75.027V75.0198Z" fill="#131926"/>
<path d="M34.5447 44.8539C23.3681 44.8539 18.7968 40.9151 18.7968 31.2623C18.7968 21.6095 23.3681 17.6636 34.5447 17.6636C45.7212 17.6636 50.2925 21.6023 50.2925 31.2551C50.2925 40.9079 45.7284 44.8467 34.5447 44.8467V44.8539Z" fill="#20A6FF"/>
<path d="M20.5506 29.2426C20.5506 29.2426 19.8247 24.9014 22.7212 22.012C24.1659 20.5673 26.3365 19.8414 28.5072 19.8414C28.5072 19.8414 22.7212 22.012 20.5506 29.2426Z" fill="#9FDDFF"/>
<path d="M31.5906 38.2486C30.5484 38.2486 29.5493 38.1192 28.5934 37.8533C28.2412 37.7598 27.9178 37.652 27.6087 37.537C26.8325 37.2423 26.4587 36.3511 26.7965 35.5892V35.5748C27.12 34.8633 27.9393 34.5254 28.6509 34.8201C28.8809 34.9136 29.1253 35.007 29.384 35.0861C30.1243 35.3233 30.8647 35.4383 31.605 35.4383C32.1009 35.4383 32.4962 35.3951 32.7981 35.3017C33.1 35.2083 33.3228 35.0933 33.4593 34.9351C33.5959 34.7842 33.6678 34.6045 33.6678 34.3961C33.6678 34.1014 33.5384 33.8714 33.2725 33.7061C33.0065 33.5336 32.6615 33.397 32.2375 33.2892C31.8134 33.1814 31.3462 33.0736 30.8359 32.9586C30.3256 32.8508 29.8081 32.707 29.2978 32.5417C28.7803 32.3692 28.3131 32.1464 27.8962 31.8733C27.4722 31.6001 27.1272 31.2408 26.8612 30.7951C26.5953 30.3495 26.4659 29.7889 26.4659 29.1061C26.4659 28.337 26.6743 27.647 27.0912 27.0289C27.5081 26.4108 28.1334 25.9076 28.9672 25.5339C29.8009 25.1601 30.8359 24.9661 32.0793 24.9661C32.9131 24.9661 33.7325 25.0595 34.5375 25.2464C34.789 25.3039 35.0262 25.3686 35.2562 25.4476C36.054 25.7064 36.4637 26.6048 36.1403 27.3811C35.8456 28.0998 35.0406 28.4448 34.3075 28.1861C34.1278 28.1214 33.9553 28.0639 33.7756 28.0208C33.179 27.8554 32.6112 27.7764 32.0506 27.7764C31.5547 27.7764 31.1593 27.8267 30.8575 27.9345C30.5556 28.0351 30.34 28.1789 30.2034 28.3442C30.074 28.5167 30.0022 28.7108 30.0022 28.9264C30.0022 29.2067 30.1315 29.4295 30.3903 29.5948C30.649 29.7601 30.994 29.8895 31.4253 29.9973C31.8565 30.0979 32.3237 30.2058 32.8412 30.3208C33.3515 30.4286 33.869 30.5651 34.3793 30.7304C34.8897 30.8958 35.3568 31.1114 35.7809 31.3845C36.205 31.6576 36.5428 32.017 36.8015 32.4626C37.0603 32.9083 37.1897 33.4617 37.1897 34.1301C37.1897 34.8704 36.9812 35.5533 36.5643 36.1786C36.1475 36.8039 35.5293 37.307 34.7028 37.6808C33.8762 38.0545 32.834 38.2486 31.5762 38.2486H31.5906Z" fill="white"/>
<path d="M37.6784 36.7823L41.5237 25.7279C41.6818 25.2751 42.0987 24.9733 42.5731 24.9733H42.5803C43.3493 24.9733 43.8884 25.7351 43.6297 26.4683L39.7843 37.5226C39.6262 37.9755 39.2093 38.2773 38.735 38.2773H38.7278C37.9587 38.2773 37.4197 37.5154 37.6784 36.7823Z" fill="white"/>
<path d="M26.4587 56.1886C23.9503 55.5058 22.5487 57.317 22.2468 58.0645C20.989 60.2423 23.1381 65.058 26.5378 63.7067C29.9303 62.3483 29.9303 57.1589 26.4587 56.1886Z" fill="#924FF5"/>
</svg>
